<?xml version="1.0"?>
<svg width="554.6" height="98.6" xmlns="http://www.w3.org/2000/svg" xmlns:svg="http://www.w3.org/2000/svg" enable-background="new 0 0 554.6 98.6" version="1.1" xml:space="preserve">
 <style type="text/css">.st0{fill:#ED1C24;}
	.st1{fill:#FFFFFF;}</style>
 <g class="layer">
  <title>Layer 1</title>
  <g id="svg_1">
   <path d="m208.6,68.8c0,3.5 -0.7,6.7 -2,9.5c-1.3,2.8 -3.3,5.2 -5.8,7.1c-2.5,1.9 -5.5,3.4 -9.1,4.5c-3.6,1.1 -7.6,1.6 -12.1,1.6c-9.6,0 -17.1,-2.2 -22.4,-6.5c-5.3,-4.3 -8,-10.5 -8.2,-18.6l15.3,0c0.5,8.8 5.8,13.2 15.9,13.2c4,0 7.2,-0.8 9.5,-2.5c2.3,-1.6 3.5,-3.9 3.5,-6.8c0,-1.1 -0.2,-2.1 -0.5,-2.9c-0.4,-0.8 -1,-1.5 -2,-2.2c-1,-0.7 -2.3,-1.3 -3.9,-1.9c-1.7,-0.6 -3.8,-1.3 -6.4,-2l-6.5,-1.8c-4.7,-1.3 -8.3,-2.4 -10.8,-3.5c-2.5,-1.1 -4.6,-2.3 -6.1,-3.7c-3.6,-3.2 -5.4,-7.6 -5.4,-13.3c0,-3.2 0.6,-6 1.9,-8.6c1.3,-2.6 3.1,-4.8 5.4,-6.7c2.3,-1.9 5.2,-3.3 8.6,-4.3c3.3,-1 7.1,-1.5 11.1,-1.5c8.5,0 15.1,1.9 19.8,5.8c4.7,3.9 7.1,9.4 7.4,16.7l-14.6,0c-0.3,-3.4 -1.7,-6.1 -3.9,-7.9c-2.3,-1.8 -5.4,-2.7 -9.4,-2.7c-3.6,0 -6.5,0.7 -8.5,2.1c-2,1.4 -3,3.4 -3,6c0,1 0.2,1.8 0.6,2.6c0.4,0.7 1.1,1.4 2,2c1,0.6 2.2,1.2 3.7,1.7c1.6,0.6 3.5,1.2 5.9,1.8l4.8,1.2c2.5,0.6 4.7,1.2 6.6,1.8c1.9,0.6 3.5,1.1 4.9,1.7c1.4,0.6 2.7,1.1 3.8,1.7c1.1,0.6 2.1,1.2 3.1,2c4.5,3.7 6.8,8.5 6.8,14.4" fill="#ffffff" id="svg_2" transform="matrix(1 0 0 1 0 0)"/>
   <path d="m284.8,89.7l-15.4,0l-7.7,-30.1l-1.8,-8l-1.1,-5.9c-0.2,-1.2 -0.4,-2.2 -0.5,-3c-0.1,-0.8 -0.3,-1.5 -0.4,-2.1c-0.1,-0.6 -0.2,-1.3 -0.3,-1.9c-0.1,-0.7 -0.2,-1.5 -0.4,-2.6c-0.1,1 -0.3,1.8 -0.4,2.5c-0.1,0.7 -0.2,1.3 -0.3,1.9c-0.1,0.6 -0.2,1.3 -0.4,2.1c-0.1,0.8 -0.3,1.8 -0.5,3.1c-0.3,1.6 -0.6,2.9 -0.8,3.9c-0.2,0.9 -0.3,1.6 -0.4,1.8c-0.2,1.2 -0.5,2.4 -0.7,3.7c-0.3,1.3 -0.6,2.7 -0.9,4.1l-7.5,30.5l-15.6,0l-18.9,-70.3l15.6,0l6.9,29.6c0.6,2.2 1.1,4.5 1.5,6.7c0.4,2.2 0.9,4.8 1.5,7.8c0.2,1.1 0.4,2.1 0.5,3c0.1,0.9 0.3,1.7 0.4,2.5c0.1,0.8 0.2,1.6 0.3,2.5c0.1,0.9 0.2,2 0.4,3.2c0.1,-1.2 0.3,-2.2 0.4,-3.1c0.1,-0.9 0.2,-1.7 0.3,-2.5c0.1,-0.8 0.2,-1.6 0.4,-2.4c0.1,-0.8 0.3,-1.7 0.5,-2.8c0.6,-3.2 1.1,-6.1 1.7,-8.8c0.6,-2.7 1,-4.7 1.4,-6l7.6,-29.7l14.6,0l7.5,28.9l1.6,7.8l1.4,7c0.1,0.8 0.3,1.7 0.4,2.4c0.1,0.8 0.3,1.6 0.4,2.5c0.1,0.9 0.3,1.8 0.4,2.8c0.1,1 0.3,2.2 0.4,3.6c0.1,-1.3 0.3,-2.5 0.4,-3.4c0.1,-1 0.3,-1.9 0.4,-2.7c0.2,-0.9 0.3,-1.8 0.4,-2.6c0.1,-0.9 0.3,-1.9 0.5,-3.1c0.3,-1.3 0.6,-2.7 0.8,-4.2c0.3,-1.4 0.6,-2.8 0.8,-4.1c0.2,-1.3 0.5,-2.5 0.7,-3.7c0.3,-1.1 0.5,-2.1 0.7,-2.9l6.8,-28.4l15.4,0l-19,70.4z" fill="#ffffff" id="svg_3" transform="matrix(1 0 0 1 0 0)"/>
   <rect fill="#ffffff" height="70.3" id="svg_4" transform="matrix(1 0 0 1 0 0)" width="15.4" x="311.2" y="19.5"/>
   <path d="m395.3,68.8c0,3.5 -0.7,6.7 -2,9.5c-1.3,2.8 -3.3,5.2 -5.8,7.1c-2.5,1.9 -5.5,3.4 -9.1,4.5c-3.6,1.1 -7.6,1.6 -12,1.6c-9.7,0 -17.1,-2.2 -22.5,-6.5c-5.3,-4.3 -8.1,-10.5 -8.2,-18.6l15.4,0c0.5,8.8 5.8,13.2 15.9,13.2c4,0 7.2,-0.8 9.5,-2.5c2.3,-1.6 3.5,-3.9 3.5,-6.8c0,-1.1 -0.2,-2.1 -0.5,-2.9c-0.4,-0.8 -1,-1.5 -2,-2.2c-0.9,-0.7 -2.3,-1.3 -3.9,-1.9c-1.7,-0.6 -3.8,-1.3 -6.4,-2l-6.5,-1.8c-4.7,-1.3 -8.3,-2.4 -10.8,-3.5c-2.5,-1.1 -4.6,-2.3 -6.1,-3.7c-3.6,-3.2 -5.4,-7.6 -5.4,-13.3c0,-3.2 0.6,-6 1.9,-8.6c1.3,-2.6 3.1,-4.8 5.4,-6.7c2.4,-1.9 5.2,-3.3 8.6,-4.3c3.3,-1 7.1,-1.5 11.1,-1.5c8.5,0 15.1,1.9 19.7,5.8c4.7,3.9 7.1,9.4 7.4,16.7l-14.5,0c-0.4,-3.4 -1.6,-6.1 -3.9,-7.9c-2.2,-1.8 -5.4,-2.7 -9.4,-2.7c-3.7,0 -6.5,0.7 -8.5,2.1c-2,1.4 -3,3.4 -3,6c0,1 0.2,1.8 0.6,2.6c0.4,0.7 1.1,1.4 2,2c0.9,0.6 2.2,1.2 3.7,1.7c1.5,0.6 3.5,1.2 5.9,1.8l4.7,1.2c2.5,0.6 4.7,1.2 6.6,1.8c1.9,0.6 3.5,1.1 4.9,1.7c1.4,0.6 2.7,1.1 3.8,1.7c1.1,0.6 2.2,1.2 3.1,2c4.6,3.7 6.8,8.5 6.8,14.4" fill="#ffffff" id="svg_5" transform="matrix(1 0 0 1 0 0)"/>
   <path d="m461.9,68.8c0,3.5 -0.7,6.7 -2,9.5c-1.3,2.8 -3.3,5.2 -5.8,7.1c-2.5,1.9 -5.5,3.4 -9.1,4.5c-3.6,1.1 -7.6,1.6 -12,1.6c-9.7,0 -17.1,-2.2 -22.5,-6.5c-5.3,-4.3 -8.1,-10.5 -8.2,-18.6l15.4,0c0.5,8.8 5.8,13.2 15.9,13.2c4,0 7.2,-0.8 9.5,-2.5c2.3,-1.6 3.5,-3.9 3.5,-6.8c0,-1.1 -0.2,-2.1 -0.5,-2.9c-0.4,-0.8 -1,-1.5 -2,-2.2c-0.9,-0.7 -2.3,-1.3 -3.9,-1.9c-1.7,-0.6 -3.8,-1.3 -6.4,-2l-6.5,-1.8c-4.7,-1.3 -8.3,-2.4 -10.8,-3.5c-2.5,-1.1 -4.6,-2.3 -6.1,-3.7c-3.6,-3.2 -5.4,-7.6 -5.4,-13.3c0,-3.2 0.6,-6 1.9,-8.6c1.3,-2.6 3.1,-4.8 5.4,-6.7c2.4,-1.9 5.2,-3.3 8.6,-4.3c3.3,-1 7.1,-1.5 11.1,-1.5c8.5,0 15.1,1.9 19.7,5.8c4.7,3.9 7.1,9.4 7.4,16.7l-14.6,0c-0.4,-3.4 -1.6,-6.1 -3.9,-7.9c-2.2,-1.8 -5.4,-2.7 -9.4,-2.7c-3.7,0 -6.5,0.7 -8.5,2.1c-2,1.4 -3,3.4 -3,6c0,1 0.2,1.8 0.6,2.6c0.4,0.7 1.1,1.4 2,2c0.9,0.6 2.2,1.2 3.7,1.7c1.5,0.6 3.5,1.2 5.9,1.8l4.7,1.2c2.5,0.6 4.7,1.2 6.6,1.8c1.9,0.6 3.5,1.1 4.9,1.7c1.4,0.6 2.7,1.1 3.8,1.7c1.1,0.6 2.2,1.2 3.1,2c4.6,3.7 6.9,8.5 6.9,14.4" fill="#ffffff" id="svg_6"/>
   <path class="st0" d="m66.2,69c0,6.6 -2.2,11.7 -6.5,15.2c-4.3,3.6 -10.4,5.3 -18.3,5.3l-34.3,0l0,-69.8l31.6,0c3.6,0 6.5,0.2 8.9,0.6c2.4,0.4 4.4,1 6.3,1.9c2.9,1.5 5.1,3.5 6.7,6.2c1.6,2.7 2.4,5.6 2.4,8.9c0,3.2 -0.8,6.1 -2.5,8.6c-1.6,2.5 -4,4.4 -7.1,5.8c0.9,0.3 1.6,0.5 2.2,0.7c0.6,0.2 1,0.4 1.5,0.6c0.4,0.2 0.8,0.4 1.2,0.6c0.3,0.2 0.7,0.5 1.2,0.8c4.5,3.4 6.7,8.3 6.7,14.6m-18.2,-29.1c0,-2.9 -0.9,-5 -2.7,-6.3c-1.8,-1.3 -4.8,-1.9 -9,-1.9l-14,0l0,16.3l14.1,0c7.8,0 11.6,-2.7 11.6,-8.1m2.8,28.1c0,-3.4 -1,-5.9 -3.1,-7.3c-2.1,-1.5 -5.6,-2.2 -10.6,-2.2l-14.8,0l0,19.1l15.6,0c4.6,0 7.8,-0.8 9.8,-2.3c2.1,-1.5 3.1,-4 3.1,-7.3" id="svg_7"/>
   <path class="st0" d="m136.6,53.8c0,2.4 -0.2,5 -0.6,7.8c-0.4,2.7 -0.9,5.1 -1.5,7.1c-1.6,5.1 -4.2,9.4 -7.9,12.9c-2.9,2.9 -6.2,4.9 -9.8,6.1c-3.6,1.2 -8.3,1.8 -14,1.8l-28.6,0l0,-69.8l28.3,0c1.6,0 3.4,0.1 5.5,0.3c2,0.2 3.8,0.5 5.3,0.7c4.8,1 9.1,3.2 12.8,6.5c3.4,3.2 6.1,7 7.8,11.5c1.8,4.6 2.7,9.6 2.7,15.1m-15.5,0.5c0,-7.2 -1.7,-12.6 -5.2,-16.3c-3.4,-3.6 -8.5,-5.4 -15.3,-5.4l-11.1,0l0,44.1l11.8,0c2,0 3.8,-0.1 5.4,-0.3c1.6,-0.2 3,-0.6 4.2,-1.1c1.2,-0.5 2.3,-1.1 3.3,-1.9c1,-0.8 1.9,-1.8 2.7,-3c2.8,-3.9 4.2,-9.3 4.2,-16.1" id="svg_8"/>
   <polygon class="st0" id="svg_9" points="473.9,22.2 473.9,91 547.5,7.2  "/>
   <polygon class="st1" id="svg_10" points="501.5,39.9 492.2,39.9 492.2,30.7 483.1,30.7 483.1,39.9 473.9,39.9 473.9,49.1 483.1,49.1    483.1,58.3 492.2,58.3 492.2,49.1 501.5,49.1  "/>
  </g>
 </g>
</svg>