<?xml version="1.0" encoding="utf-8"?>
<!-- Generator: Adobe Illustrator 16.0.0, SVG Export Plug-In . SVG Version: 6.00 Build 0)  -->
<!DOCTYPE svg PUBLIC "-//W3C//DTD SVG 1.1//EN" "http://www.w3.org/Graphics/SVG/1.1/DTD/svg11.dtd">
<svg version="1.1" id="Layer_1" xmlns="http://www.w3.org/2000/svg" xmlns:xlink="http://www.w3.org/1999/xlink" x="0px" y="0px"
	 width="1098.11px" height="308.707px" viewBox="0 0 1098.11 308.707" enable-background="new 0 0 1098.11 308.707"
	 xml:space="preserve">
<g display="none">
	<path display="inline" fill-rule="evenodd" clip-rule="evenodd" fill="#FFFFFF" d="M219.106,40.828
		c-12.489,3.499-23.968,6.715-35.446,9.931c-0.126-0.282-0.253-0.564-0.379-0.846c22.954-11.118,45.908-22.235,68.862-33.354
		c-0.099-0.283-0.196-0.566-0.294-0.849c-1.343,0.331-2.695,0.629-4.026,1c-30.788,8.569-61.558,17.201-92.386,25.621
		c-2.526,0.689-5.833,0.794-8.112-0.263c-12.721-5.9-25.138-5.759-37.828,0.121c-4.642,2.151-10.036,2.683-14.671,4.846
		c-11.258,5.255-22.186,4.713-33.682,0.558c-9.617-3.476-19.703-5.65-30.486-8.653C38.18,66.558,45.46,93.286,52.74,120.015
		c-0.268,0.131-0.535,0.263-0.803,0.395c-0.682-1.119-1.427-2.204-2.034-3.361C35.738,90.069,21.545,63.104,7.493,36.066
		c-1.588-3.053-3.548-4.707-6.943-5.6c-13.812-3.627-27.532-7.601-41.654-10.762c4.736,3.564,9.573,7.006,14.154,10.761
		c1.533,1.257,3.115,3.172,3.485,5.023c6.096,30.534,12.004,61.105,17.94,91.671c0.091,0.469,0.011,0.97,0.011,2.425
		c-0.945-1.659-1.544-2.498-1.934-3.424c-15.103-35.908-30.149-71.839-45.34-107.71c-1.249-2.951-1.26-4.949,0.891-7.549
		c6.051-7.314,11.849-14.848,17.514-22.467c1.887-2.538,3.813-3.058,6.772-2.436C6.277-6.88,40.186,0.141,74.09,7.18
		c1.608,0.334,3.232,0.592,5.371,0.048C54.419-15.336,29.377-37.899,4.379-60.422C14.952-77.07,38.851-84.625,59.217-77.739
		c21.441,7.249,42.764,14.851,64.245,21.977c3.015,1,6.927,1.036,9.935,0.039c20.851-6.907,41.571-14.209,62.339-21.366
		c1.327-0.457,2.708-0.758,4.33-0.327c-21.573,9.497-43.146,18.993-64.72,28.489c0.1,0.3,0.199,0.6,0.299,0.899
		c29.361-8.117,58.722-16.233,88.083-24.35c0.117,0.291,0.235,0.582,0.353,0.873c-13.114,7.359-26.229,14.718-39.343,22.077
		c0.103,0.24,0.204,0.479,0.306,0.719c15.692-4.285,31.384-8.571,47.076-12.855c3.533-0.964,7.202-1.594,10.567-2.968
		c4.551-1.858,7.642-0.833,9.972,4.064c-24.891,22.477-49.92,45.08-74.95,67.683c0.144,0.275,0.287,0.55,0.43,0.825
		c11.644-3.268,23.286-6.538,34.931-9.803c22.116-6.201,44.254-12.329,66.327-18.679c3.051-0.878,4.757-0.437,6.686,2.118
		c7.531,9.97,15.384,19.697,22.901,29.677c1.069,1.42,1.856,4.115,1.245,5.585c-15.402,37.04-31.009,73.996-46.59,110.962
		c-0.117,0.278-0.381,0.496-1.354,0.588c5.784-29.858,11.569-59.717,17.354-89.575c0.254,0.024,0.509,0.05,0.764,0.074
		c-1.127,13.814-2.254,27.629-3.381,41.443c0.272,0.066,0.544,0.134,0.815,0.201c1.791-4.743,3.603-9.479,5.368-14.231
		c5.39-14.513,10.657-29.072,16.218-43.52c1.287-3.344,0.954-5.814-1.061-8.714c-4.901-7.054-9.474-14.335-15.055-21.143
		c1.816,9.269,3.633,18.538,5.559,28.369c-2.469,0.73-4.776,1.457-7.108,2.096c-11.076,3.032-22.129,6.162-33.26,8.982
		c-3.211,0.814-5.083,2.412-6.59,5.308c-13.991,26.881-28.114,53.692-42.201,80.523c-0.454,0.864-0.932,1.717-2.316,2.286
		C204.536,94.344,211.682,68.099,219.106,40.828z M165.946,11.733c-5.76,6.734-11.192,13.087-16.626,19.44
		c0.218,0.294,0.437,0.588,0.654,0.883c9.25-2.309,18.5-4.618,28.584-7.135C174.097,20.256,170.241,16.225,165.946,11.733z
		 M78.362,24.987c10.289,2.5,19.469,4.73,28.647,6.96c0.115-0.39,0.229-0.779,0.344-1.17c-5.372-6.271-10.745-12.542-16.313-19.041
		C86.836,16.131,82.951,20.191,78.362,24.987z"/>
	<g display="inline">
		<path fill-rule="evenodd" clip-rule="evenodd" fill="#FFFFFF" d="M1143.685,15.475c-12.489,3.498-23.968,6.715-35.446,9.93
			c-0.126-0.281-0.253-0.564-0.379-0.846c22.954-11.117,45.908-22.234,68.862-33.354c-0.099-0.283-0.196-0.566-0.294-0.848
			c-1.343,0.33-2.695,0.629-4.026,1c-30.788,8.569-61.558,17.202-92.386,25.622c-2.526,0.689-5.833,0.793-8.112-0.264
			c-12.721-5.9-25.138-5.758-37.828,0.121c-4.642,2.152-10.036,2.684-14.671,4.846c-11.258,5.256-22.186,4.713-33.682,0.559
			c-9.617-3.477-19.703-5.65-30.486-8.654c7.521,27.617,14.802,54.346,22.082,81.074c-0.268,0.131-0.535,0.264-0.803,0.395
			c-0.682-1.119-1.427-2.203-2.034-3.361c-14.165-26.979-28.358-53.943-42.41-80.98c-1.588-3.053-3.548-4.707-6.943-5.6
			c-13.812-3.627-27.532-7.602-41.654-10.762c4.736,3.564,9.573,7.006,14.154,10.76c1.533,1.258,3.115,3.172,3.485,5.023
			c6.096,30.535,12.004,61.105,17.94,91.672c0.091,0.469,0.011,0.969,0.011,2.424c-0.945-1.658-1.544-2.498-1.934-3.424
			c-15.103-35.908-30.149-71.838-45.34-107.709c-1.249-2.951-1.26-4.949,0.891-7.549c6.051-7.314,11.849-14.848,17.514-22.468
			c1.887-2.538,3.813-3.058,6.772-2.437c33.888,7.121,67.796,14.143,101.7,21.182c1.608,0.334,3.232,0.592,5.371,0.047
			c-25.042-22.563-50.084-45.127-75.082-67.649c10.573-16.647,34.472-24.202,54.838-17.317c21.441,7.25,42.764,14.852,64.245,21.977
			c3.015,1,6.927,1.036,9.935,0.039c20.851-6.906,41.571-14.209,62.339-21.365c1.327-0.457,2.708-0.759,4.33-0.327
			c-21.573,9.497-43.146,18.993-64.72,28.489c0.1,0.299,0.199,0.6,0.299,0.898c29.361-8.116,58.722-16.232,88.083-24.35
			c0.117,0.291,0.235,0.582,0.353,0.873c-13.114,7.358-26.229,14.718-39.343,22.076c0.103,0.24,0.204,0.48,0.306,0.72
			c15.692-4.285,31.384-8.571,47.076-12.854c3.533-0.965,7.202-1.594,10.567-2.969c4.551-1.857,7.642-0.832,9.972,4.064
			c-24.891,22.478-49.92,45.08-74.95,67.684c0.144,0.275,0.287,0.549,0.43,0.824c11.644-3.268,23.286-6.537,34.931-9.803
			c22.116-6.2,44.254-12.328,66.327-18.678c3.051-0.879,4.757-0.438,6.686,2.117c7.531,9.971,15.384,19.697,22.901,29.678
			c1.069,1.42,1.856,4.115,1.245,5.584c-15.402,37.042-31.009,73.997-46.59,110.963c-0.117,0.277-0.381,0.496-1.354,0.588
			c5.784-29.859,11.569-59.717,17.354-89.576c0.254,0.025,0.509,0.051,0.764,0.074c-1.127,13.814-2.254,27.629-3.381,41.443
			c0.272,0.066,0.544,0.135,0.815,0.201c1.791-4.742,3.603-9.479,5.368-14.23c5.39-14.514,10.657-29.072,16.218-43.52
			c1.287-3.344,0.954-5.815-1.061-8.715c-4.901-7.053-9.474-14.334-15.055-21.143c1.816,9.27,3.633,18.537,5.559,28.37
			c-2.469,0.73-4.776,1.457-7.108,2.096c-11.076,3.031-22.129,6.162-33.26,8.982c-3.211,0.814-5.083,2.412-6.59,5.307
			c-13.991,26.881-28.114,53.693-42.201,80.523c-0.454,0.865-0.932,1.717-2.316,2.287
			C1129.114,68.99,1136.26,42.744,1143.685,15.475z M1090.524-13.622c-5.76,6.734-11.192,13.088-16.626,19.442
			c0.218,0.293,0.437,0.588,0.654,0.883c9.25-2.309,18.5-4.619,28.584-7.135C1098.675-5.098,1094.819-9.129,1090.524-13.622z
			 M1002.94-0.367c10.289,2.5,19.469,4.73,28.647,6.961c0.115-0.391,0.229-0.779,0.344-1.17
			c-5.372-6.271-10.745-12.543-16.313-19.042C1011.414-9.223,1007.529-5.162,1002.94-0.367z"/>
	</g>
</g>
<g>
	<path fill="#4504BA" d="M209.396,157.865c0,29.537-19.356,59.404-57.404,59.404c-38.549,0-57.571-29.867-57.571-59.404
		c0-29.538,19.022-59.24,57.571-59.24C190.039,98.625,209.396,128.327,209.396,157.865z M183.864,158.199
		c0-18.022-10.848-36.049-31.873-36.049c-21.192,0-31.873,18.026-31.873,36.049c0,17.852,10.681,35.541,31.873,35.541
		C173.017,193.74,183.864,176.051,183.864,158.199z"/>
	<path fill="#4504BA" d="M264.969,169.545h-8.51v43.39c0,1.332-1.502,2.834-3.673,2.834h-18.189c-2.002,0-3.338-1.502-3.338-2.834
		V103.13c0-1.502,1.336-2.839,3.338-2.839h36.212c6.843,0,40.05,0.334,40.05,34.877c0,17.354-9.01,26.534-20.358,31.04
		c3.505,7.509,7.342,16.021,10.848,23.359l10.178,22.199c0.836,2-0.331,4.002-3.004,4.002h-20.022c-1.004,0-2.839-0.999-3.171-1.837
		L264.969,169.545z M256.459,147.352h14.35c4.171,0,14.852-0.837,14.852-11.68c0-10.683-11.848-11.851-14.852-11.851h-14.35V147.352
		z"/>
	<path fill="#4504BA" d="M442.356,157.865c0,29.537-19.355,59.404-57.403,59.404c-38.549,0-57.571-29.867-57.571-59.404
		c0-29.538,19.022-59.24,57.571-59.24C423.001,98.625,442.356,128.327,442.356,157.865z M416.826,158.199
		c0-18.022-10.847-36.049-31.873-36.049c-21.193,0-31.873,18.026-31.873,36.049c0,17.852,10.68,35.541,31.873,35.541
		C405.979,193.74,416.826,176.051,416.826,158.199z"/>
	<path fill="#4504BA" d="M542.319,183.562c1.168-0.999,3.171-0.999,4.506,0l12.683,12.852c1.168,0.999,1.168,3.339,0,4.507
		c-10.349,10.009-24.697,16.52-40.719,16.52c-31.873,0-58.073-23.03-58.073-58.906c0-34.547,24.032-59.908,58.073-59.908
		c15.854,0,30.705,6.671,41.051,16.685c0.669,1.168,0.669,3.338-0.332,4.341l-12.683,12.684c-1.335,0.998-3.338,0.998-4.506,0
		c-6.342-6.177-14.52-10.014-23.53-10.014c-20.357,0-32.54,16.021-32.54,36.213c0,21.69,14.685,34.877,32.54,34.877
		C527.8,193.41,535.978,189.738,542.319,183.562z"/>
	<path fill="#4504BA" d="M665.81,100.291c1.836,0,3.337,1.337,3.337,2.839v109.805c0,1.332-1.501,2.834-3.337,2.834h-18.356
		c-2.003,0-3.505-1.502-3.505-2.834v-44.058h-38.215v44.058c0,1.332-1.502,2.834-3.503,2.834h-18.191
		c-2.001,0-3.503-1.502-3.503-2.834V103.13c0-1.502,1.502-2.839,3.503-2.839h18.191c2.001,0,3.503,1.337,3.503,2.839v42.217h38.215
		V103.13c0-1.502,1.502-2.839,3.505-2.839H665.81z"/>
	<path fill="#4504BA" d="M694.011,103.13c0-1.502,1.501-2.839,3.504-2.839h18.189c2.17,0,3.505,1.337,3.505,2.839v109.805
		c0,1.332-1.335,2.834-3.505,2.834h-18.189c-2.003,0-3.504-1.502-3.504-2.834V103.13z"/>
	<path fill="#1CE94E" d="M730.725,97.247h118.522v29.633h-88.893v14.813h88.893l-29.632,29.63h-59.261v59.263l-29.63,29.63V97.247z"
		/>
	<path fill="#1CE94E" d="M923.323,178.73l-37.038,37.038h-44.446l59.26-59.26l-37.037-37.037V75.025l59.262,59.259l37.037-37.037
		h44.446l-59.262,59.262l37.038,37.038v44.447L923.323,178.73z"/>
</g>
</svg>
