<?xml version="1.0" encoding="utf-8"?>
<!-- Generator: Adobe Illustrator 16.0.0, SVG Export Plug-In . SVG Version: 6.00 Build 0)  -->
<!DOCTYPE svg PUBLIC "-//W3C//DTD SVG 1.1//EN" "http://www.w3.org/Graphics/SVG/1.1/DTD/svg11.dtd">
<svg version="1.1" id="Layer_1" xmlns="http://www.w3.org/2000/svg" xmlns:xlink="http://www.w3.org/1999/xlink" x="0px" y="0px"
	 width="1098.11px" height="308.707px" viewBox="0 0 1098.11 308.707" enable-background="new 0 0 1098.11 308.707"
	 xml:space="preserve">
<g>
	<path fill="#FFFFFF" d="M209.396,157.865c0,29.537-19.356,59.404-57.404,59.404c-38.549,0-57.571-29.867-57.571-59.404
		c0-29.538,19.022-59.24,57.571-59.24C190.039,98.625,209.396,128.327,209.396,157.865z M183.864,158.199
		c0-18.022-10.848-36.049-31.873-36.049c-21.192,0-31.873,18.026-31.873,36.049c0,17.852,10.681,35.541,31.873,35.541
		C173.017,193.74,183.864,176.051,183.864,158.199z"/>
	<path fill="#FFFFFF" d="M264.969,169.545h-8.51v43.39c0,1.332-1.502,2.834-3.673,2.834h-18.189c-2.002,0-3.338-1.502-3.338-2.834
		V103.13c0-1.502,1.336-2.839,3.338-2.839h36.212c6.843,0,40.05,0.334,40.05,34.877c0,17.354-9.01,26.534-20.358,31.04
		c3.505,7.509,7.342,16.021,10.848,23.359l10.178,22.199c0.836,2-0.331,4.002-3.004,4.002h-20.022c-1.004,0-2.839-0.999-3.171-1.837
		L264.969,169.545z M256.459,147.352h14.35c4.171,0,14.852-0.837,14.852-11.68c0-10.683-11.848-11.851-14.852-11.851h-14.35V147.352
		z"/>
	<path fill="#FFFFFF" d="M442.356,157.865c0,29.537-19.355,59.404-57.403,59.404c-38.549,0-57.571-29.867-57.571-59.404
		c0-29.538,19.022-59.24,57.571-59.24C423.001,98.625,442.356,128.327,442.356,157.865z M416.826,158.199
		c0-18.022-10.847-36.049-31.873-36.049c-21.193,0-31.873,18.026-31.873,36.049c0,17.852,10.68,35.541,31.873,35.541
		C405.979,193.74,416.826,176.051,416.826,158.199z"/>
	<path fill="#FFFFFF" d="M542.319,183.562c1.168-0.999,3.171-0.999,4.506,0l12.683,12.852c1.168,0.999,1.168,3.339,0,4.507
		c-10.349,10.009-24.697,16.52-40.719,16.52c-31.873,0-58.073-23.03-58.073-58.906c0-34.547,24.032-59.908,58.073-59.908
		c15.854,0,30.705,6.671,41.051,16.685c0.669,1.168,0.669,3.338-0.332,4.341l-12.683,12.684c-1.335,0.998-3.338,0.998-4.506,0
		c-6.342-6.177-14.52-10.014-23.53-10.014c-20.357,0-32.54,16.021-32.54,36.213c0,21.69,14.685,34.877,32.54,34.877
		C527.8,193.41,535.978,189.738,542.319,183.562z"/>
	<path fill="#FFFFFF" d="M665.81,100.291c1.836,0,3.337,1.337,3.337,2.839v109.805c0,1.332-1.501,2.834-3.337,2.834h-18.356
		c-2.003,0-3.505-1.502-3.505-2.834v-44.058h-38.215v44.058c0,1.332-1.502,2.834-3.503,2.834h-18.191
		c-2.001,0-3.503-1.502-3.503-2.834V103.13c0-1.502,1.502-2.839,3.503-2.839h18.191c2.001,0,3.503,1.337,3.503,2.839v42.217h38.215
		V103.13c0-1.502,1.502-2.839,3.505-2.839H665.81z"/>
	<path fill="#FFFFFF" d="M694.011,103.13c0-1.502,1.501-2.839,3.504-2.839h18.189c2.17,0,3.505,1.337,3.505,2.839v109.805
		c0,1.332-1.335,2.834-3.505,2.834h-18.189c-2.003,0-3.504-1.502-3.504-2.834V103.13z"/>
	<path fill="#FFFFFF" d="M730.725,97.247h118.522v29.633h-88.893v14.813h88.893l-29.632,29.63h-59.261v59.263l-29.63,29.63V97.247z"
		/>
	<path fill="#FFFFFF" d="M923.323,178.73l-37.038,37.038h-44.446l59.26-59.26l-37.037-37.037V75.025l59.262,59.259l37.037-37.037
		h44.446l-59.262,59.262l37.038,37.038v44.447L923.323,178.73z"/>
</g>
</svg>
