<?xml version="1.0" encoding="utf-8"?>
<!-- Generator: Adobe Illustrator 21.0.0, SVG Export Plug-In . SVG Version: 6.00 Build 0)  -->
<svg version="1.1" id="Layer_1" xmlns="http://www.w3.org/2000/svg" xmlns:xlink="http://www.w3.org/1999/xlink" x="0px" y="0px"
	 viewBox="0 0 554.6 98.6" style="enable-background:new 0 0 554.6 98.6;" xml:space="preserve">
<style type="text/css">
	.st0{fill:#ED1C24;}
	.st1{fill:#FFFFFF;}
</style>
<g>
	<path d="M208.6,68.8c0,3.5-0.7,6.7-2,9.5c-1.3,2.8-3.3,5.2-5.8,7.1c-2.5,1.9-5.5,3.4-9.1,4.5c-3.6,1.1-7.6,1.6-12.1,1.6
		c-9.6,0-17.1-2.2-22.4-6.5c-5.3-4.3-8-10.5-8.2-18.6h15.3c0.5,8.8,5.8,13.2,15.9,13.2c4,0,7.2-0.8,9.5-2.5c2.3-1.6,3.5-3.9,3.5-6.8
		c0-1.1-0.2-2.1-0.5-2.9c-0.4-0.8-1-1.5-2-2.2c-1-0.7-2.3-1.3-3.9-1.9c-1.7-0.6-3.8-1.3-6.4-2l-6.5-1.8c-4.7-1.3-8.3-2.4-10.8-3.5
		c-2.5-1.1-4.6-2.3-6.1-3.7c-3.6-3.2-5.4-7.6-5.4-13.3c0-3.2,0.6-6,1.9-8.6c1.3-2.6,3.1-4.8,5.4-6.7c2.3-1.9,5.2-3.3,8.6-4.3
		c3.3-1,7.1-1.5,11.1-1.5c8.5,0,15.1,1.9,19.8,5.8c4.7,3.9,7.1,9.4,7.4,16.7h-14.6c-0.3-3.4-1.7-6.1-3.9-7.9
		c-2.3-1.8-5.4-2.7-9.4-2.7c-3.6,0-6.5,0.7-8.5,2.1c-2,1.4-3,3.4-3,6c0,1,0.2,1.8,0.6,2.6c0.4,0.7,1.1,1.4,2,2
		c1,0.6,2.2,1.2,3.7,1.7c1.6,0.6,3.5,1.2,5.9,1.8l4.8,1.2c2.5,0.6,4.7,1.2,6.6,1.8c1.9,0.6,3.5,1.1,4.9,1.7c1.4,0.6,2.7,1.1,3.8,1.7
		c1.1,0.6,2.1,1.2,3.1,2C206.3,58.1,208.6,62.9,208.6,68.8"/>
	<path d="M284.8,89.7h-15.4l-7.7-30.1l-1.8-8l-1.1-5.9c-0.2-1.2-0.4-2.2-0.5-3c-0.1-0.8-0.3-1.5-0.4-2.1c-0.1-0.6-0.2-1.3-0.3-1.9
		c-0.1-0.7-0.2-1.5-0.4-2.6c-0.1,1-0.3,1.8-0.4,2.5c-0.1,0.7-0.2,1.3-0.3,1.9c-0.1,0.6-0.2,1.3-0.4,2.1c-0.1,0.8-0.3,1.8-0.5,3.1
		c-0.3,1.6-0.6,2.9-0.8,3.9c-0.2,0.9-0.3,1.6-0.4,1.8c-0.2,1.2-0.5,2.4-0.7,3.7c-0.3,1.3-0.6,2.7-0.9,4.1l-7.5,30.5h-15.6
		l-18.9-70.3h15.6l6.9,29.6c0.6,2.2,1.1,4.5,1.5,6.7c0.4,2.2,0.9,4.8,1.5,7.8c0.2,1.1,0.4,2.1,0.5,3c0.1,0.9,0.3,1.7,0.4,2.5
		c0.1,0.8,0.2,1.6,0.3,2.5c0.1,0.9,0.2,2,0.4,3.2c0.1-1.2,0.3-2.2,0.4-3.1c0.1-0.9,0.2-1.7,0.3-2.5c0.1-0.8,0.2-1.6,0.4-2.4
		c0.1-0.8,0.3-1.7,0.5-2.8c0.6-3.2,1.1-6.1,1.7-8.8c0.6-2.7,1-4.7,1.4-6l7.6-29.7h14.6l7.5,28.9l1.6,7.8l1.4,7
		c0.1,0.8,0.3,1.7,0.4,2.4c0.1,0.8,0.3,1.6,0.4,2.5c0.1,0.9,0.3,1.8,0.4,2.8c0.1,1,0.3,2.2,0.4,3.6c0.1-1.3,0.3-2.5,0.4-3.4
		c0.1-1,0.3-1.9,0.4-2.7c0.2-0.9,0.3-1.8,0.4-2.6c0.1-0.9,0.3-1.9,0.5-3.1c0.3-1.3,0.6-2.7,0.8-4.2c0.3-1.4,0.6-2.8,0.8-4.1
		c0.2-1.3,0.5-2.5,0.7-3.7c0.3-1.1,0.5-2.1,0.7-2.9l6.8-28.4h15.4L284.8,89.7z"/>
	<rect x="311.2" y="19.5" width="15.4" height="70.3"/>
	<path d="M395.3,68.8c0,3.5-0.7,6.7-2,9.5c-1.3,2.8-3.3,5.2-5.8,7.1c-2.5,1.9-5.5,3.4-9.1,4.5c-3.6,1.1-7.6,1.6-12,1.6
		c-9.7,0-17.1-2.2-22.5-6.5c-5.3-4.3-8.1-10.5-8.2-18.6h15.4c0.5,8.8,5.8,13.2,15.9,13.2c4,0,7.2-0.8,9.5-2.5
		c2.3-1.6,3.5-3.9,3.5-6.8c0-1.1-0.2-2.1-0.5-2.9c-0.4-0.8-1-1.5-2-2.2c-0.9-0.7-2.3-1.3-3.9-1.9c-1.7-0.6-3.8-1.3-6.4-2l-6.5-1.8
		c-4.7-1.3-8.3-2.4-10.8-3.5c-2.5-1.1-4.6-2.3-6.1-3.7c-3.6-3.2-5.4-7.6-5.4-13.3c0-3.2,0.6-6,1.9-8.6c1.3-2.6,3.1-4.8,5.4-6.7
		c2.4-1.9,5.2-3.3,8.6-4.3c3.3-1,7.1-1.5,11.1-1.5c8.5,0,15.1,1.9,19.7,5.8c4.7,3.9,7.1,9.4,7.4,16.7H378c-0.4-3.4-1.6-6.1-3.9-7.9
		c-2.2-1.8-5.4-2.7-9.4-2.7c-3.7,0-6.5,0.7-8.5,2.1c-2,1.4-3,3.4-3,6c0,1,0.2,1.8,0.6,2.6c0.4,0.7,1.1,1.4,2,2
		c0.9,0.6,2.2,1.2,3.7,1.7c1.5,0.6,3.5,1.2,5.9,1.8l4.7,1.2c2.5,0.6,4.7,1.2,6.6,1.8c1.9,0.6,3.5,1.1,4.9,1.7
		c1.4,0.6,2.7,1.1,3.8,1.7c1.1,0.6,2.2,1.2,3.1,2C393.1,58.1,395.3,62.9,395.3,68.8"/>
	<path d="M461.9,68.8c0,3.5-0.7,6.7-2,9.5c-1.3,2.8-3.3,5.2-5.8,7.1c-2.5,1.9-5.5,3.4-9.1,4.5c-3.6,1.1-7.6,1.6-12,1.6
		c-9.7,0-17.1-2.2-22.5-6.5c-5.3-4.3-8.1-10.5-8.2-18.6h15.4c0.5,8.8,5.8,13.2,15.9,13.2c4,0,7.2-0.8,9.5-2.5
		c2.3-1.6,3.5-3.9,3.5-6.8c0-1.1-0.2-2.1-0.5-2.9c-0.4-0.8-1-1.5-2-2.2c-0.9-0.7-2.3-1.3-3.9-1.9c-1.7-0.6-3.8-1.3-6.4-2l-6.5-1.8
		c-4.7-1.3-8.3-2.4-10.8-3.5c-2.5-1.1-4.6-2.3-6.1-3.7c-3.6-3.2-5.4-7.6-5.4-13.3c0-3.2,0.6-6,1.9-8.6c1.3-2.6,3.1-4.8,5.4-6.7
		c2.4-1.9,5.2-3.3,8.6-4.3c3.3-1,7.1-1.5,11.1-1.5c8.5,0,15.1,1.9,19.7,5.8c4.7,3.9,7.1,9.4,7.4,16.7h-14.6
		c-0.4-3.4-1.6-6.1-3.9-7.9c-2.2-1.8-5.4-2.7-9.4-2.7c-3.7,0-6.5,0.7-8.5,2.1c-2,1.4-3,3.4-3,6c0,1,0.2,1.8,0.6,2.6
		c0.4,0.7,1.1,1.4,2,2c0.9,0.6,2.2,1.2,3.7,1.7c1.5,0.6,3.5,1.2,5.9,1.8l4.7,1.2c2.5,0.6,4.7,1.2,6.6,1.8c1.9,0.6,3.5,1.1,4.9,1.7
		c1.4,0.6,2.7,1.1,3.8,1.7c1.1,0.6,2.2,1.2,3.1,2C459.6,58.1,461.9,62.9,461.9,68.8"/>
	<path class="st0" d="M66.2,69c0,6.6-2.2,11.7-6.5,15.2c-4.3,3.6-10.4,5.3-18.3,5.3H7.1V19.7h31.6c3.6,0,6.5,0.2,8.9,0.6
		c2.4,0.4,4.4,1,6.3,1.9c2.9,1.5,5.1,3.5,6.7,6.2c1.6,2.7,2.4,5.6,2.4,8.9c0,3.2-0.8,6.1-2.5,8.6c-1.6,2.5-4,4.4-7.1,5.8
		c0.9,0.3,1.6,0.5,2.2,0.7c0.6,0.2,1,0.4,1.5,0.6c0.4,0.2,0.8,0.4,1.2,0.6c0.3,0.2,0.7,0.5,1.2,0.8C64,57.8,66.2,62.7,66.2,69
		 M48,39.9c0-2.9-0.9-5-2.7-6.3c-1.8-1.3-4.8-1.9-9-1.9h-14V48h14.1C44.2,48,48,45.3,48,39.9 M50.8,68c0-3.4-1-5.9-3.1-7.3
		c-2.1-1.5-5.6-2.2-10.6-2.2H22.3v19.1h15.6c4.6,0,7.8-0.8,9.8-2.3C49.8,73.8,50.8,71.3,50.8,68"/>
	<path class="st0" d="M136.6,53.8c0,2.4-0.2,5-0.6,7.8c-0.4,2.7-0.9,5.1-1.5,7.1c-1.6,5.1-4.2,9.4-7.9,12.9
		c-2.9,2.9-6.2,4.9-9.8,6.1c-3.6,1.2-8.3,1.8-14,1.8H74.2V19.7h28.3c1.6,0,3.4,0.1,5.5,0.3c2,0.2,3.8,0.5,5.3,0.7
		c4.8,1,9.1,3.2,12.8,6.5c3.4,3.2,6.1,7,7.8,11.5C135.7,43.3,136.6,48.3,136.6,53.8 M121.1,54.3c0-7.2-1.7-12.6-5.2-16.3
		c-3.4-3.6-8.5-5.4-15.3-5.4H89.5v44.1h11.8c2,0,3.8-0.1,5.4-0.3c1.6-0.2,3-0.6,4.2-1.1c1.2-0.5,2.3-1.1,3.3-1.9
		c1-0.8,1.9-1.8,2.7-3C119.7,66.5,121.1,61.1,121.1,54.3"/>
	<polygon class="st0" points="473.9,22.2 473.9,91 547.5,7.2 	"/>
	<polygon class="st1" points="501.5,39.9 492.2,39.9 492.2,30.7 483.1,30.7 483.1,39.9 473.9,39.9 473.9,49.1 483.1,49.1 
		483.1,58.3 492.2,58.3 492.2,49.1 501.5,49.1 	"/>
</g>
</svg>
